# xmcd
#
# Track frame offsets:
#	150
#	28788
#	60077
#	89689
#	126559
#	162710
#	197972
#	230910
#	258690
#	290567
#	331501
#
# Disc length: 4816 seconds
#
# Revision: 3
# Processed by: cddbd v1.5.2PL0 Copyright (c) Steve Scherf et al.
# Submitted via: EasyCDDAExtractor 10.0.2.1
#
DISCID=ab12ce0b
DTITLE=CRÉU and SEUS TECLADOS - VOL.12 (VONTADE DE TE VER)
DYEAR=2010
DGENRE=FORRÓ
TTITLE0=VONTADE DE TE VER, PASSARINHO (BY GILMAR SINISTRO)
TTITLE1=AQUI NÃO PICA-PAU, FARRA BOA (BY GILMAR SINISTRO)
TTITLE2=CHORA ME LIGA, VUCU-VUCU (BY GILMAR SINISTRO)
TTITLE3=PAIXÃO GOIANA, ELA FOI EMBORA (BY GILMAR SINISTRO)
TTITLE4=A UNICA, EX MULHER (BY GILMAR SINISTRO)
TTITLE5=VOA BEIJA-FLOR, LUZ DA MINHA VIDA (BY GILMAR SINISTRO)
TTITLE6=LADO ESQUERDO, BOLA DE PAPEL (BY GILMAR SINISTRO)
TTITLE7=DEUSA NUA, BEBER EU BEBO (BY GILMAR SINISTRO)
TTITLE8=TUTTI-FRUTI, CHUPA QUE É DE UVA (BY GILMAR SINISTRO)
TTITLE9=CADA DIA MACHUCA MAIS, TÔ SOFRENDO (BY GILMAR SINISTRO)
TTITLE10=DO OUTRO LADO DA CIDADE, ASSINO COM X (BY GILMAR SINISTRO)
EXTD=COLATINA CIDADE DAS PIRANHAS ...
EXTT0=
EXTT1=
EXTT2=
EXTT3=
EXTT4=
EXTT5=
EXTT6=
EXTT7=
EXTT8=
EXTT9=
EXTT10=
PLAYORDER=
